<svg xmlns="http://www.w3.org/2000/svg" viewBox="0 0 760 470" role="img" aria-label="Pilot diagnostic: failures versus offered rate">
<rect width="100%" height="100%" fill="white"/>
<text x="380.0" y="25" text-anchor="middle" font-size="17">Pilot diagnostic: failures versus offered rate</text>
<path d="M 88 45 V 398 H 730" fill="none" stroke="#333"/>
<text x="409.0" y="452" text-anchor="middle" font-size="13">Target offered requests/s</text>
<text x="20" y="221.5" text-anchor="middle" font-size="13" transform="rotate(-90 20 221.5)">Median failure fraction</text>
<text x="88.0" y="416" text-anchor="middle" font-size="11">1</text>
<text x="80" y="402.0" text-anchor="end" font-size="11">0</text>
<text x="248.5" y="416" text-anchor="middle" font-size="11">4.8</text>
<text x="80" y="313.8" text-anchor="end" font-size="11">0.15</text>
<text x="409.0" y="416" text-anchor="middle" font-size="11">8.5</text>
<text x="80" y="225.5" text-anchor="end" font-size="11">0.31</text>
<text x="569.5" y="416" text-anchor="middle" font-size="11">12</text>
<text x="80" y="137.2" text-anchor="end" font-size="11">0.46</text>
<text x="730.0" y="416" text-anchor="middle" font-size="11">16</text>
<text x="80" y="49.0" text-anchor="end" font-size="11">0.61</text>
<text x="88" y="425" fill="#2367b4" font-size="12">reference</text>
<polyline points="88.0,398.0 130.8,398.0 216.4,398.0 302.0,398.0 473.2,189.3 730.0,45.0" fill="none" stroke="#2367b4" stroke-width="2"/>
<circle cx="88.0" cy="398.0" r="5" fill="#2367b4" stroke="#2367b4" stroke-width="2"/>
<text x="95.0" y="391.0" font-size="10">1 rps</text>
<circle cx="130.8" cy="398.0" r="5" fill="#2367b4" stroke="#2367b4" stroke-width="2"/>
<text x="137.8" y="391.0" font-size="10">2 rps</text>
<circle cx="216.4" cy="398.0" r="5" fill="#2367b4" stroke="#2367b4" stroke-width="2"/>
<text x="223.4" y="391.0" font-size="10">4 rps</text>
<circle cx="302.0" cy="398.0" r="5" fill="#2367b4" stroke="#2367b4" stroke-width="2"/>
<text x="309.0" y="391.0" font-size="10">6 rps</text>
<circle cx="473.2" cy="189.3" r="5" fill="white" stroke="#2367b4" stroke-width="2"/>
<text x="480.2" y="182.3" font-size="10">10 rps</text>
<circle cx="730.0" cy="45.0" r="5" fill="white" stroke="#2367b4" stroke-width="2"/>
<text x="737.0" y="38.0" font-size="10">16 rps</text>
<text x="243" y="425" fill="#d35b30" font-size="12">flashinfer</text>
<polyline points="88.0,398.0 130.8,398.0 216.4,398.0 302.0,398.0 473.2,398.0 730.0,305.6" fill="none" stroke="#d35b30" stroke-width="2"/>
<circle cx="88.0" cy="398.0" r="5" fill="#d35b30" stroke="#d35b30" stroke-width="2"/>
<text x="95.0" y="391.0" font-size="10">1 rps</text>
<circle cx="130.8" cy="398.0" r="5" fill="#d35b30" stroke="#d35b30" stroke-width="2"/>
<text x="137.8" y="391.0" font-size="10">2 rps</text>
<circle cx="216.4" cy="398.0" r="5" fill="#d35b30" stroke="#d35b30" stroke-width="2"/>
<text x="223.4" y="391.0" font-size="10">4 rps</text>
<circle cx="302.0" cy="398.0" r="5" fill="#d35b30" stroke="#d35b30" stroke-width="2"/>
<text x="309.0" y="391.0" font-size="10">6 rps</text>
<circle cx="473.2" cy="398.0" r="5" fill="#d35b30" stroke="#d35b30" stroke-width="2"/>
<text x="480.2" y="391.0" font-size="10">10 rps</text>
<circle cx="730.0" cy="305.6" r="5" fill="white" stroke="#d35b30" stroke-width="2"/>
<text x="737.0" y="298.6" font-size="10">16 rps</text>
</svg>
