<svg xmlns="http://www.w3.org/2000/svg" width="760" height="430" viewBox="0 0 760 430">
<rect width="100%" height="100%" fill="white"/>
<text x="380" y="30" text-anchor="middle" font-family="sans-serif" font-size="18">Long synthetic workload: SLO goodput</text>
<line x1="80" y1="55" x2="80" y2="355" stroke="#333"/>
<line x1="80" y1="355" x2="730" y2="355" stroke="#333"/>
<text x="380" y="414" text-anchor="middle" font-family="sans-serif" font-size="13">Offered requests/s</text>
<text transform="translate(20 215.0) rotate(-90)" text-anchor="middle" font-family="sans-serif" font-size="13">Median SLO-qualified completions/s</text>
<text x="80.0" y="373" text-anchor="middle" font-family="sans-serif" font-size="11">0.0</text>
<line x1="80" y1="355.0" x2="730" y2="355.0" stroke="#eee"/>
<text x="73" y="359.0" text-anchor="end" font-family="sans-serif" font-size="11">0.0</text>
<text x="188.3" y="373" text-anchor="middle" font-family="sans-serif" font-size="11">0.3</text>
<line x1="80" y1="305.0" x2="730" y2="305.0" stroke="#eee"/>
<text x="73" y="309.0" text-anchor="end" font-family="sans-serif" font-size="11">0.3</text>
<text x="296.7" y="373" text-anchor="middle" font-family="sans-serif" font-size="11">0.5</text>
<line x1="80" y1="255.0" x2="730" y2="255.0" stroke="#eee"/>
<text x="73" y="259.0" text-anchor="end" font-family="sans-serif" font-size="11">0.7</text>
<text x="405.0" y="373" text-anchor="middle" font-family="sans-serif" font-size="11">0.8</text>
<line x1="80" y1="205.0" x2="730" y2="205.0" stroke="#eee"/>
<text x="73" y="209.0" text-anchor="end" font-family="sans-serif" font-size="11">1.0</text>
<text x="513.3" y="373" text-anchor="middle" font-family="sans-serif" font-size="11">1.1</text>
<line x1="80" y1="155.0" x2="730" y2="155.0" stroke="#eee"/>
<text x="73" y="159.0" text-anchor="end" font-family="sans-serif" font-size="11">1.4</text>
<text x="621.7" y="373" text-anchor="middle" font-family="sans-serif" font-size="11">1.3</text>
<line x1="80" y1="105.0" x2="730" y2="105.0" stroke="#eee"/>
<text x="73" y="109.0" text-anchor="end" font-family="sans-serif" font-size="11">1.7</text>
<text x="730.0" y="373" text-anchor="middle" font-family="sans-serif" font-size="11">1.6</text>
<line x1="80" y1="55.0" x2="730" y2="55.0" stroke="#eee"/>
<text x="73" y="59.0" text-anchor="end" font-family="sans-serif" font-size="11">2.1</text>
<polyline points="120.6,340.5 161.2,323.6 242.5,297.1 405.0,260.9 730.0,342.9" fill="none" stroke="#3566a8" stroke-width="2"/>
<circle cx="120.6" cy="340.5" r="4" fill="#3566a8"/>
<circle cx="161.2" cy="323.6" r="4" fill="#3566a8"/>
<circle cx="242.5" cy="297.1" r="4" fill="#3566a8"/>
<circle cx="405.0" cy="260.9" r="4" fill="#3566a8"/>
<circle cx="730.0" cy="342.9" r="4" fill="#3566a8"/>
<polyline points="120.6,340.5 161.2,323.6 242.5,294.7 405.0,246.4 730.0,222.3" fill="none" stroke="#d36031" stroke-width="2"/>
<circle cx="120.6" cy="340.5" r="4" fill="#d36031"/>
<circle cx="161.2" cy="323.6" r="4" fill="#d36031"/>
<circle cx="242.5" cy="294.7" r="4" fill="#d36031"/>
<circle cx="405.0" cy="246.4" r="4" fill="#d36031"/>
<circle cx="730.0" cy="222.3" r="4" fill="#d36031"/>
<polyline points="120.6,340.5 161.2,323.6 242.5,292.3 405.0,241.6 730.0,87.1" fill="none" stroke="#39824b" stroke-width="2"/>
<circle cx="120.6" cy="340.5" r="4" fill="#39824b"/>
<circle cx="161.2" cy="323.6" r="4" fill="#39824b"/>
<circle cx="242.5" cy="292.3" r="4" fill="#39824b"/>
<circle cx="405.0" cy="241.6" r="4" fill="#39824b"/>
<circle cx="730.0" cy="87.1" r="4" fill="#39824b"/>
<text x="80" y="387" fill="#3566a8" font-family="sans-serif" font-size="12">reference</text>
<text x="225" y="387" fill="#d36031" font-family="sans-serif" font-size="12">flashinfer</text>
<text x="370" y="387" fill="#39824b" font-family="sans-serif" font-size="12">vllm</text>
</svg>
